#!OML:ASF F:\VICON\USERDATA\INSTALL\rory3\rory3.ASF
:FULLY-SPECIFIED
:DEGREES
3285
root 2.90147 14.7779 -18.8546 -531.504 -47.5405 527.072
lowerback 17.3619 -1.88635 -10.9576
upperback -2.19335 -4.97375 -0.291264
thorax -11.3644 -1.66267 7.19081
lowerneck -11.26 -6.2325 -4.21765
upperneck 17.9688 -9.02855 4.26011
head 7.78217 -4.35088 1.14562
rclavicle 1.2352e-013 3.97569e-016
rhumerus 23.2794 50.3909 -51.5873
rradius 114.161
rwrist 19.736
rhand -1.27346 26.6121
rfingers 7.12502
rthumb 24.3701 -1.8583
lclavicle 1.2352e-013 3.97569e-016
lhumerus -10.1126 -54.2382 93.0751
lradius 53.5908
lwrist 78.4992
lhand 3.35763 32.2785
lfingers 7.12502
lthumb 28.8022 60.0761
rfemur -32.7168 -20.9532 21.8255
rtibia 65.4132
rfoot -38.9509 -10.8855
rtoes 23.937
lfemur -20.3581 21.3239 0.235888
ltibia 67.0436
lfoot 6.79388 -0.690164
ltoes -37.0913
3286
root 2.90441 14.7824 -18.8702 -531.427 -47.5629 527.003
lowerback 17.2348 -1.83903 -10.9908
upperback -2.14202 -4.89828 -0.294831
thorax -11.2442 -1.63682 7.1754
lowerneck -11.6172 -6.08062 -4.33924
upperneck 18.4498 -8.84556 4.3596
head 8.00739 -4.25583 1.19928
rclavicle 9.43482e-014 9.14409e-015
rhumerus 23.2795 50.1742 -51.5202
rradius 114.145
rwrist 19.561
rhand -0.845391 27.2025
rfingers 7.12502
rthumb 24.7804 -1.21214
lclavicle 9.43482e-014 9.14409e-015
lhumerus -10.0302 -54.5177 93.0613
lradius 53.7009
lwrist 78.6236
lhand 3.17894 31.9311
lfingers 7.12502
lthumb 28.6315 59.7576
rfemur -32.6395 -20.8441 21.8445
rtibia 65.3243
rfoot -38.7053 -10.2421
rtoes 25.6321
lfemur -20.459 21.1142 0.322061
ltibia 66.8519
lfoot 5.61277 0.881648
ltoes -26.9474
3287
root 2.90776 14.7878 -18.8811 -531.285 -47.5894 526.864
lowerback 17.1985 -1.83007 -10.9944
upperback -2.13152 -4.88152 -0.293991
thorax -11.214 -1.63149 7.17109
lowerneck -12.0578 -6.07107 -4.82436
upperneck 18.8991 -8.83927 4.7442
head 8.27767 -4.23978 1.38389
rclavicle 3.844e-014 9.54166e-015
rhumerus 23.3255 50.0158 -51.4122
rradius 114.18
rwrist 19.4009
rhand -0.5584 27.7303
rfingers 7.12502
rthumb 25.0554 -0.646168
lclavicle 3.844e-014 9.54166e-015
lhumerus -10.1962 -54.4139 93.2801
lradius 53.7128
lwrist 78.5095
lhand 3.31219 32.0082
lfingers 7.12502
lthumb 28.7588 59.8132
rfemur -32.6406 -20.8029 21.7989
rtibia 65.2825
rfoot -38.5738 -10.0964
rtoes 26.0369
lfemur -20.6482 20.9683 0.227911
ltibia 66.6981
lfoot 4.14259 1.37959
ltoes -21.9058
3288
root 2.91808 14.7827 -18.8868 -531.304 -47.6192 526.975
lowerback 17.2418 -1.87339 -10.977
upperback -2.13875 -4.92444 -0.175307
thorax -11.2285 -1.64521 7.30784
lowerneck -12.3449 -6.06494 -5.29429
upperneck 19.1249 -8.79971 5.0282
head 8.43913 -4.21874 1.5465
rclavicle 1.8569e-013 7.95139e-015
rhumerus 23.595 50.1241 -51.1774
rradius 114.152
rwrist 19.5811
rhand -0.717731 27.7399
rfingers 7.12502
rthumb 24.9027 -0.657829
lclavicle 1.8569e-013 7.95139e-015
lhumerus -10.1614 -54.016 93.3588
lradius 53.4989
lwrist 78.067
lhand 4.03125 33.3307
lfingers 7.12502
lthumb 29.4455 61.017
rfemur -32.7508 -20.6681 21.9888
rtibia 65.253
rfoot -38.5945 -10.1428
rtoes 26.388
lfemur -20.8935 21.0048 0.338601
ltibia 66.5995
lfoot 2.75448 1.60293
ltoes -18.9968
3289
root 2.92832 14.781 -18.8998 -531.308 -47.7063 527.039
lowerback 17.2541 -1.91049 -11.0694
upperback -2.13267 -4.97768 -0.0515369
thorax -11.1992 -1.66077 7.51148
lowerneck -12.2074 -6.04016 -4.83981
upperneck 18.85 -8.70512 4.44973
head 8.26799 -4.19743 1.30167
rclavicle -3.15322e-014 3.97569e-015
rhumerus 23.8325 50.1931 -50.9023
rradius 114.172
rwrist 19.651
rhand -0.972271 27.0547
rfingers 7.12502
rthumb 24.6588 -1.37658
lclavicle -3.15322e-014 3.97569e-015
lhumerus -9.85413 -53.8369 93.3037
lradius 53.2037
lwrist 77.931
lhand 4.43475 34.2981
lfingers 7.12502
lthumb 29.8307 61.9159
rfemur -32.7757 -20.616 22.1605
rtibia 65.195
rfoot -38.6113 -10.2983
rtoes 26.2812
lfemur -21.1334 21.1086 0.430805
ltibia 66.4346
lfoot 1.74437 1.87221
ltoes -18.8901
3290
root 2.93238 14.7858 -18.9163 -531.206 -47.8184 526.861
lowerback 17.3298 -1.91574 -11.1545
upperback -2.15648 -5.02052 -0.089245
thorax -11.2597 -1.67163 7.53443
lowerneck -11.6317 -6.09816 -4.12206
upperneck 18.2097 -8.76817 3.84284
head 7.89201 -4.24661 1.00865
rclavicle -2.38542e-014 -2.98177e-014
rhumerus 23.6663 50.1433 -50.9902
rradius 114.246
rwrist 19.6451
rhand -0.9792 26.2737
rfingers 7.12502
rthumb 24.6521 -2.15847
lclavicle -2.38542e-014 -2.98177e-014
lhumerus -9.87082 -53.9526 93.3061
lradius 53.23
lwrist 78.1179
lhand 4.28726 34.4835
lfingers 7.12502
lthumb 29.6899 62.1265
rfemur -32.6314 -20.7086 22.0819
rtibia 65.1206
rfoot -38.6426 -10.4657
rtoes 25.8894
lfemur -21.2311 21.1039 0.314595
ltibia 66.162
lfoot 1.07672 2.4562
ltoes -20.7898
3291
root 2.93127 14.7926 -18.9253 -531.158 -47.977 526.848
lowerback 17.3429 -1.97651 -10.9466
upperback -2.19422 -5.06635 -0.138194
thorax -11.321 -1.70233 7.37612
lowerneck -11.4181 -6.18066 -4.04809
upperneck 18.0337 -8.8954 3.85082
head 7.798 -4.30684 0.99495
rclavicle 9.49942e-014 3.10104e-014
rhumerus 23.4803 50.1062 -51.0572
rradius 114.363
rwrist 19.579
rhand -0.996033 25.9733
rfingers 7.12502
rthumb 24.636 -2.46112
lclavicle 9.49942e-014 3.10104e-014
lhumerus -10.0404 -54.057 93.3129
lradius 53.5347
lwrist 78.2044
lhand 3.91205 34.9481
lfingers 7.12502
lthumb 29.3317 62.6543
rfemur -32.5645 -20.9247 22.0955
rtibia 65.0217
rfoot -38.5568 -10.5766
rtoes 25.4274
lfemur -21.3552 20.9946 0.319801
ltibia 65.8262
lfoot 0.40188 3.26895
ltoes -19.3035
